<?xml version="1.0" encoding="UTF-8" standalone="no"?>
<!DOCTYPE svg PUBLIC "-//W3C//DTD SVG 1.0//EN" "http://www.w3.org/TR/2001/PR-SVG-20010719/DTD/svg10.dtd">
<svg width="44cm" height="21cm" viewBox="36 65 864 412" xmlns="http://www.w3.org/2000/svg" xmlns:xlink="http://www.w3.org/1999/xlink">
  <g>
    <line style="fill: none; fill-opacity:0; stroke-width: 1; stroke: #000000" x1="102.36" y1="128.823" x2="185.552" y2="129.326"/>
    <polygon style="fill: #000000" points="185.521,134.325 195.551,129.386 185.582,124.326 "/>
    <polygon style="fill: none; fill-opacity:0; stroke-width: 1; stroke: #000000" points="185.521,134.325 195.551,129.386 185.582,124.326 "/>
  </g>
  <g>
    <ellipse style="fill: #ffffff" cx="257.52" cy="129.76" rx="60.966" ry="46.2698"/>
    <ellipse style="fill: none; fill-opacity:0; stroke-width: 1; stroke: #000000" cx="257.52" cy="129.76" rx="60.966" ry="46.2698"/>
    <text font-size="12.8" style="fill: #000000;text-anchor:middle;font-family:sans-serif;font-style:normal;font-weight:normal" x="257.52" y="133.66">
      <tspan x="257.52" y="133.66">Load domains</tspan>
    </text>
  </g>
  <g>
    <line style="fill: none; fill-opacity:0; stroke-width: 1; stroke: #000000" x1="318.984" y1="129.76" x2="345.941" y2="129.76"/>
    <polygon style="fill: #000000" points="345.941,134.76 355.941,129.76 345.941,124.76 "/>
    <polygon style="fill: none; fill-opacity:0; stroke-width: 1; stroke: #000000" points="345.941,134.76 355.941,129.76 345.941,124.76 "/>
  </g>
  <g>
    <rect style="fill: #00ff00" x="106" y="65.1" width="77.75" height="14.95"/>
    <text font-size="12.8" style="fill: #000000;text-anchor:start;font-family:sans-serif;font-style:normal;font-weight:normal" x="106" y="77">
      <tspan x="106" y="77">initialization</tspan>
    </text>
  </g>
  <g>
    <rect style="fill: #00ff00" x="360.45" y="65.1" width="115.1" height="14.95"/>
    <text font-size="12.8" style="fill: #000000;text-anchor:middle;font-family:sans-serif;font-style:normal;font-weight:normal" x="418" y="77">
      <tspan x="418" y="77">geolocation mode</tspan>
    </text>
  </g>
  <g>
    <ellipse style="fill: #ffffff" cx="420.521" cy="129.76" rx="63.5828" ry="36.4784"/>
    <ellipse style="fill: none; fill-opacity:0; stroke-width: 1; stroke: #000000" cx="420.521" cy="129.76" rx="63.5828" ry="36.4784"/>
    <text font-size="12.8" style="fill: #000000;text-anchor:middle;font-family:sans-serif;font-style:normal;font-weight:normal" x="420.521" y="133.66">
      <tspan x="420.521" y="133.66">geo pos. exist</tspan>
    </text>
  </g>
  <g>
    <line style="fill: none; fill-opacity:0; stroke-width: 1; stroke: #000000" x1="484.092" y1="129.344" x2="596.635" y2="128.607"/>
    <polygon style="fill: #000000" points="596.668,133.607 606.635,128.541 596.602,123.607 "/>
    <polygon style="fill: none; fill-opacity:0; stroke-width: 1; stroke: #000000" points="596.668,133.607 606.635,128.541 596.602,123.607 "/>
  </g>
  <text font-size="12.8" style="fill: #000000;text-anchor:start;font-family:sans-serif;font-style:normal;font-weight:normal" x="521" y="122">
    <tspan x="521" y="122">false</tspan>
  </text>
  <g>
    <ellipse style="fill: #ffffff" cx="419.999" cy="263.001" rx="64.5067" ry="32.2534"/>
    <ellipse style="fill: none; fill-opacity:0; stroke-width: 1; stroke: #000000" cx="419.999" cy="263.001" rx="64.5067" ry="32.2534"/>
    <text font-size="12.8" style="fill: #000000;text-anchor:middle;font-family:sans-serif;font-style:normal;font-weight:normal" x="419.999" y="266.901">
      <tspan x="419.999" y="266.901">get geoDomain</tspan>
    </text>
  </g>
  <g>
    <line style="fill: none; fill-opacity:0; stroke-width: 1; stroke: #000000" x1="420.376" y1="166.73" x2="420.169" y2="219.76"/>
    <polygon style="fill: #000000" points="415.169,219.74 420.129,229.76 425.168,219.779 "/>
    <polygon style="fill: none; fill-opacity:0; stroke-width: 1; stroke: #000000" points="415.169,219.74 420.129,229.76 425.168,219.779 "/>
  </g>
  <text font-size="12.8" style="fill: #000000;text-anchor:start;font-family:sans-serif;font-style:normal;font-weight:normal" x="428" y="195">
    <tspan x="428" y="195">true</tspan>
  </text>
  <g>
    <line style="fill: none; fill-opacity:0; stroke-width: 1; stroke: #000000" x1="420" y1="295.735" x2="420" y2="321.575"/>
    <polygon style="fill: #000000" points="415,321.575 420,331.575 425,321.575 "/>
    <polygon style="fill: none; fill-opacity:0; stroke-width: 1; stroke: #000000" points="415,321.575 420,331.575 425,321.575 "/>
  </g>
  <g>
    <line style="fill: none; fill-opacity:0; stroke-width: 1; stroke: #000000" x1="465.257" y1="239.593" x2="620.21" y2="159.449"/>
    <polygon style="fill: #000000" points="622.507,163.89 629.092,154.855 617.913,155.008 "/>
    <polygon style="fill: none; fill-opacity:0; stroke-width: 1; stroke: #000000" points="622.507,163.89 629.092,154.855 617.913,155.008 "/>
  </g>
  <g>
    <ellipse style="fill: #ffffff" cx="420.001" cy="364.499" rx="63.8471" ry="31.9236"/>
    <ellipse style="fill: none; fill-opacity:0; stroke-width: 1; stroke: #000000" cx="420.001" cy="364.499" rx="63.8471" ry="31.9236"/>
    <text font-size="12.8" style="fill: #000000;text-anchor:middle;font-family:sans-serif;font-style:normal;font-weight:normal" x="420.001" y="368.399">
      <tspan x="420.001" y="368.399">set geoDomain</tspan>
    </text>
  </g>
  <text font-size="12.8" style="fill: #000000;text-anchor:start;font-family:sans-serif;font-style:normal;font-weight:normal" x="516" y="195.25">
    <tspan x="516" y="195.25">false</tspan>
  </text>
  <text font-size="12.8" style="fill: #000000;text-anchor:start;font-family:sans-serif;font-style:normal;font-weight:normal" x="430" y="313.25">
    <tspan x="430" y="313.25">true</tspan>
  </text>
  <g>
    <ellipse style="fill: #ffffff" cx="420.001" cy="453.499" rx="44.2427" ry="22.1213"/>
    <ellipse style="fill: none; fill-opacity:0; stroke-width: 1; stroke: #000000" cx="420.001" cy="453.499" rx="44.2427" ry="22.1213"/>
    <text font-size="12.8" style="fill: #000000;text-anchor:middle;font-family:sans-serif;font-style:normal;font-weight:normal" x="420.001" y="457.399">
      <tspan x="420.001" y="457.399">Exit</tspan>
    </text>
  </g>
  <g>
    <line style="fill: none; fill-opacity:0; stroke-width: 1; stroke: #000000" x1="420.001" y1="396.929" x2="420.001" y2="420.38"/>
    <polygon style="fill: #000000" points="415.001,420.38 420.001,430.38 425.001,420.38 "/>
    <polygon style="fill: none; fill-opacity:0; stroke-width: 1; stroke: #000000" points="415.001,420.38 420.001,430.38 425.001,420.38 "/>
  </g>
  <text font-size="12.8" style="fill: #000000;text-anchor:start;font-family:sans-serif;font-style:normal;font-weight:normal" x="912.352" y="129.946">
    <tspan x="912.352" y="129.946"></tspan>
  </text>
  <text font-size="12.8" style="fill: #000000;text-anchor:start;font-family:sans-serif;font-style:normal;font-weight:normal" x="912.352" y="129.946">
    <tspan x="912.352" y="129.946"></tspan>
  </text>
  <text font-size="12.8" style="fill: #000000;text-anchor:start;font-family:sans-serif;font-style:normal;font-weight:normal" x="96.5" y="236.5">
    <tspan x="96.5" y="236.5"></tspan>
  </text>
  <text font-size="12.8" style="fill: #000000;text-anchor:start;font-family:sans-serif;font-style:normal;font-weight:normal" x="95.5" y="251.5">
    <tspan x="95.5" y="251.5"></tspan>
  </text>
  <g>
    <ellipse style="fill: #ffffff" cx="69.241" cy="128.624" rx="32.641" ry="23.7236"/>
    <ellipse style="fill: none; fill-opacity:0; stroke-width: 1; stroke: #000000" cx="69.241" cy="128.624" rx="32.641" ry="23.7236"/>
    <text font-size="12.8" style="fill: #000000;text-anchor:middle;font-family:sans-serif;font-style:normal;font-weight:normal" x="69.241" y="132.524">
      <tspan x="69.241" y="132.524">Start</tspan>
    </text>
  </g>
  <g>
    <rect style="fill: #00ff00" x="610.675" y="65.4" width="137.45" height="14.95"/>
    <text font-size="12.8" style="fill: #000000;text-anchor:middle;font-family:sans-serif;font-style:normal;font-weight:normal" x="679.4" y="77.3">
      <tspan x="679.4" y="77.3">default domain mode</tspan>
    </text>
  </g>
  <g>
    <ellipse style="fill: #ffffff" cx="680.909" cy="128.055" rx="73.3093" ry="36.6546"/>
    <ellipse style="fill: none; fill-opacity:0; stroke-width: 1; stroke: #000000" cx="680.909" cy="128.055" rx="73.3093" ry="36.6546"/>
    <text font-size="12.8" style="fill: #000000;text-anchor:middle;font-family:sans-serif;font-style:normal;font-weight:normal" x="680.909" y="131.955">
      <tspan x="680.909" y="131.955">set defaultDomain</tspan>
    </text>
  </g>
  <g>
    <ellipse style="fill: #ffffff" cx="855.001" cy="126" rx="44.2427" ry="22.1213"/>
    <ellipse style="fill: none; fill-opacity:0; stroke-width: 1; stroke: #000000" cx="855.001" cy="126" rx="44.2427" ry="22.1213"/>
    <text font-size="12.8" style="fill: #000000;text-anchor:middle;font-family:sans-serif;font-style:normal;font-weight:normal" x="855.001" y="129.9">
      <tspan x="855.001" y="129.9">Exit</tspan>
    </text>
  </g>
  <g>
    <line style="fill: none; fill-opacity:0; stroke-width: 0.02; stroke: #000000" x1="754.705" y1="127.184" x2="800.277" y2="126.646"/>
    <polygon style="fill: #000000" points="800.336,131.645 810.276,126.528 800.218,121.646 "/>
    <polygon style="fill: none; fill-opacity:0; stroke-width: 0.02; stroke: #000000" points="800.336,131.645 810.276,126.528 800.218,121.646 "/>
  </g>
</svg>
