<?xml version="1.0" encoding="UTF-8" standalone="no"?>
<!-- Created with Inkscape (http://www.inkscape.org/) -->
<svg xmlns:dc="http://purl.org/dc/elements/1.1/" xmlns:cc="http://web.resource.org/cc/" xmlns:rdf="http://www.w3.org/1999/02/22-rdf-syntax-ns#" xmlns:svg="http://www.w3.org/2000/svg" xmlns="http://www.w3.org/2000/svg" xmlns:sodipodi="http://inkscape.sourceforge.net/DTD/sodipodi-0.dtd" xmlns:inkscape="http://www.inkscape.org/namespaces/inkscape" version="1.0" width="900pt" height="600pt" id="svg2" sodipodi:version="0.32" inkscape:version="0.43" sodipodi:docname="multicast.svg" sodipodi:docbase="/home/cyberix/Desktop">
  <metadata id="metadata5027">
    <rdf:RDF>
      <cc:Work rdf:about="">
        <dc:format>image/svg+xml</dc:format>
        <dc:type rdf:resource="http://purl.org/dc/dcmitype/StillImage"/>
      </cc:Work>
    </rdf:RDF>
  </metadata>
  <sodipodi:namedview inkscape:window-height="555" inkscape:window-width="822" inkscape:pageshadow="2" inkscape:pageopacity="0.0" borderopacity="1.0" bordercolor="#666666" pagecolor="#ffffff" id="base" inkscape:zoom="1" inkscape:cx="381.10844" inkscape:cy="421.95237" inkscape:window-x="83" inkscape:window-y="46" inkscape:current-layer="svg2"/>
  <defs id="defs4">
    <marker refX="0" refY="0" orient="auto" style="overflow:visible" id="Arrow2Lend">
      <path d="M 8.7185878,4.0337352 L -2.2072895,0.016013256 L 8.7185884,-4.0017078 C 6.97309,-1.6296469 6.9831476,1.6157441 8.7185878,4.0337352 z " transform="matrix(-1.1,0,0,-1.1,5.5,0)" style="font-size:12px;fill-rule:evenodd;stroke-width:0.625;stroke-linejoin:round" id="path3334"/>
    </marker>
    <marker refX="0" refY="0" orient="auto" style="overflow:visible" id="Arrow1Mstart">
      <path d="M 0,0 L 5,-5 L -12.5,0 L 5,5 L 0,0 z " transform="scale(0.4,0.4)" style="fill-rule:evenodd;stroke:#000000;stroke-width:1pt;marker-start:none" id="path3349"/>
    </marker>
    <marker refX="0" refY="0" orient="auto" style="overflow:visible" id="Arrow1Lstart">
      <path d="M 0,0 L 5,-5 L -12.5,0 L 5,5 L 0,0 z " transform="scale(0.8,0.8)" style="fill-rule:evenodd;stroke:#000000;stroke-width:1pt;marker-start:none" id="path3355"/>
    </marker>
    <marker refX="0" refY="0" orient="auto" style="overflow:visible" id="Arrow2Mend">
      <path d="M 8.7185878,4.0337352 L -2.2072895,0.016013256 L 8.7185884,-4.0017078 C 6.97309,-1.6296469 6.9831476,1.6157441 8.7185878,4.0337352 z " transform="matrix(-0.6,0,0,-0.6,3,0)" style="font-size:12px;fill-rule:evenodd;stroke-width:0.625;stroke-linejoin:round" id="path3328"/>
    </marker>
    <marker refX="0" refY="0" orient="auto" style="overflow:visible" id="Arrow1Mend">
      <path d="M 0,0 L 5,-5 L -12.5,0 L 5,5 L 0,0 z " transform="scale(-0.4,-0.4)" style="fill-rule:evenodd;stroke:#000000;stroke-width:1pt;marker-start:none" id="path3346"/>
    </marker>
    <marker refX="0" refY="0" orient="auto" style="overflow:visible" id="Arrow1Lend">
      <path d="M 0,0 L 5,-5 L -12.5,0 L 5,5 L 0,0 z " transform="scale(-0.8,-0.8)" style="fill-rule:evenodd;stroke:#000000;stroke-width:1pt;marker-start:none" id="path3352"/>
    </marker>
  </defs>
  <path id="path4261" style="fill:#ff5555;fill-opacity:1;stroke:#000000;stroke-width:7.57058573;stroke-miterlimit:4;stroke-dasharray:none;stroke-opacity:1" d="M 223.53106,327.10441 C 223.53106,352.62811 202.95773,373.31911 177.57924,373.31911 C 152.20074,373.31911 131.62741,352.62811 131.62741,327.10441 C 131.62741,301.58081 152.20074,280.88981 177.57924,280.88981 C 202.95773,280.88981 223.53106,301.58081 223.53106,327.10441 z "/>
  <path id="path4263" style="fill:#ffff33;fill-opacity:1;stroke:#000000;stroke-width:7.57058573;stroke-miterlimit:4;stroke-dasharray:none;stroke-opacity:1" d="M 1037.931,293.05631 C 1037.931,318.58001 1017.3577,339.27101 991.97924,339.27101 C 966.60074,339.27101 946.02741,318.58001 946.02741,293.05631 C 946.02741,267.53271 966.60074,246.84171 991.97924,246.84171 C 1017.3577,246.84171 1037.931,267.53271 1037.931,293.05631 z "/>
  <path id="path4265" style="fill:#ffff33;fill-opacity:1;stroke:#000000;stroke-width:7.57058573;stroke-miterlimit:4;stroke-dasharray:none;stroke-opacity:1" d="M 632.21606,104.97986 C 632.21606,130.50353 611.64273,151.19455 586.26424,151.19455 C 560.88574,151.19455 540.31241,130.50353 540.31241,104.97986 C 540.31241,79.456184 560.88574,58.765174 586.26424,58.765174 C 611.64273,58.765174 632.21606,79.456184 632.21606,104.97986 z "/>
  <path id="path4267" style="fill:#55ff55;fill-opacity:1;stroke:#000000;stroke-width:7.57058573;stroke-miterlimit:4;stroke-dasharray:none;stroke-opacity:1" d="M 603.64506,607.83681 C 603.64506,633.36051 583.07173,654.05151 557.69324,654.05151 C 532.31474,654.05151 511.74141,633.36051 511.74141,607.83681 C 511.74141,582.31321 532.31474,561.62221 557.69324,561.62221 C 583.07173,561.62221 603.64506,582.31321 603.64506,607.83681 z "/>
  <path id="path4269" style="fill:#55ff55;fill-opacity:1;stroke:#000000;stroke-width:7.57058573;stroke-miterlimit:4;stroke-dasharray:none;stroke-opacity:1" d="M 903.64506,147.83696 C 903.64506,173.36063 883.07173,194.05161 857.69324,194.05161 C 832.31474,194.05161 811.74141,173.36063 811.74141,147.83696 C 811.74141,122.31328 832.31474,101.62227 857.69324,101.62227 C 883.07173,101.62227 903.64506,122.31328 903.64506,147.83696 z "/>
  <path id="path4271" style="fill:#ffff33;fill-opacity:1;stroke:#000000;stroke-width:7.57058573;stroke-miterlimit:4;stroke-dasharray:none;stroke-opacity:1" d="M 817.93106,413.55121 C 817.93106,439.07491 797.35773,459.76591 771.97924,459.76591 C 746.60074,459.76591 726.02741,439.07491 726.02741,413.55121 C 726.02741,388.02761 746.60074,367.33661 771.97924,367.33661 C 797.35773,367.33661 817.93106,388.02761 817.93106,413.55121 z "/>
  <path id="path4273" style="fill:#55ff55;fill-opacity:1;stroke:#000000;stroke-width:7.57058573;stroke-miterlimit:4;stroke-dasharray:none;stroke-opacity:1" d="M 915.07406,584.97981 C 915.07406,610.50351 894.50073,631.19451 869.12224,631.19451 C 843.74374,631.19451 823.17041,610.50351 823.17041,584.97981 C 823.17041,559.45621 843.74374,538.76521 869.12224,538.76521 C 894.50073,538.76521 915.07406,559.45621 915.07406,584.97981 z "/>
  <path id="path4277" style="fill:none;fill-opacity:0.75;fill-rule:evenodd;stroke:#000000;stroke-width:4.69999981;stroke-linecap:butt;stroke-linejoin:miter;marker-start:none;marker-end:url(#Arrow2Lend);stroke-miterlimit:4;stroke-dasharray:none;stroke-opacity:1" d="M 369.68244,325.81177 L 812.01072,165.86573" sodipodi:nodetypes="cc"/>
  <path id="path4281" style="fill:none;fill-opacity:0.75;fill-rule:evenodd;stroke:#000000;stroke-width:4.69999981;stroke-linecap:butt;stroke-linejoin:miter;marker-start:none;marker-end:url(#Arrow2Lend);stroke-miterlimit:4;stroke-dasharray:none;stroke-opacity:1" d="M 366.80669,324.95185 L 520.83602,583.62361" sodipodi:nodetypes="cc"/>
  <path id="path4287" style="fill:none;fill-opacity:0.75;fill-rule:evenodd;stroke:#000000;stroke-width:4.69999981;stroke-linecap:butt;stroke-linejoin:miter;marker-start:none;marker-end:url(#Arrow2Lend);stroke-miterlimit:4;stroke-dasharray:none;stroke-opacity:1" d="M 368.22207,325.49587 L 828.71412,568.06311" sodipodi:nodetypes="cc"/>
  <path style="fill:none;fill-opacity:0.75;fill-rule:evenodd;stroke:#000000;stroke-width:4.69999981;stroke-linecap:butt;stroke-linejoin:miter;stroke-miterlimit:4;stroke-dasharray:none;stroke-opacity:1" d="M 226.9654,327.86162 L 369.65596,325.86694" id="path1410" sodipodi:nodetypes="cc"/>
</svg>